<svg width="56" height="56" viewBox="0 0 56 56" fill="none" xmlns="http://www.w3.org/2000/svg">
<path d="M25.3747 45.0333L9.97471 29.6333C9.74138 29.4 9.57571 29.1472 9.47771 28.875C9.37971 28.6028 9.33149 28.3111 9.33304 28C9.33304 27.6889 9.38204 27.3972 9.48004 27.125C9.57804 26.8528 9.74293 26.6 9.97471 26.3666L25.3747 10.9666C25.8025 10.5389 26.3376 10.3156 26.98 10.297C27.6225 10.2783 28.1763 10.5015 28.6414 10.9666C29.108 11.3944 29.3515 11.9295 29.3717 12.572C29.3919 13.2144 29.1679 13.7682 28.6997 14.2333L17.2664 25.6666H43.3414C44.0025 25.6666 44.557 25.8906 45.005 26.3386C45.453 26.7866 45.6763 27.3404 45.6747 28C45.6747 28.6611 45.4515 29.2156 45.005 29.6636C44.5586 30.1116 44.004 30.3349 43.3414 30.3333H17.2664L28.6997 41.7666C29.1275 42.1944 29.3515 42.7389 29.3717 43.4C29.3919 44.0611 29.1679 44.6055 28.6997 45.0333C28.2719 45.5 27.7275 45.7333 27.0664 45.7333C26.4053 45.7333 25.8414 45.5 25.3747 45.0333Z" fill="white"/>
</svg>
